<?xml version="1.0" encoding="utf-8"?>
<!-- Generator: Adobe Illustrator 22.1.0, SVG Export Plug-In . SVG Version: 6.00 Build 0)  -->
<svg version="1.1" id="Ebene_1" xmlns="http://www.w3.org/2000/svg" xmlns:xlink="http://www.w3.org/1999/xlink" x="0px" y="0px"
	 viewBox="0 0 768 768" style="enable-background:new 0 0 768 768;" xml:space="preserve">
<style type="text/css">
	.st0{fill:#FFFFFF;}
</style>
<title>Zeichenfläche 1 Kopie</title>
<g>
	<path class="st0" d="M227.8,259.1v331.8c0,8.3,6.7,15.1,15.1,15.1h282.2c8.3,0,15.1-6.7,15.1-15.1V259.1H227.8z M324,544.7
		c0,8.4-6.8,15.2-15.2,15.2c-8.4,0-15.2-6.8-15.2-15.2V320c0-8.4,6.8-15.2,15.2-15.2c8.4,0,15.2,6.8,15.2,15.2V544.7z M399.2,545.8
		c0,8.4-6.8,15.2-15.2,15.2c-8.4,0-15.2-6.8-15.2-15.2V321c0-8.4,6.8-15.2,15.2-15.2c8.4,0,15.2,6.8,15.2,15.2V545.8z M474.5,546.9
		c0,8.4-6.8,15.2-15.2,15.2c-8.4,0-15.2-6.8-15.2-15.2V322c0-8.4,6.8-15.2,15.2-15.2c8.4,0,15.2,6.8,15.2,15.2V546.9z"/>
	<path class="st0" d="M553.8,211.5h-96.2v-35.8c0-8.4-6.8-15.2-15.2-15.2H325.6c-8.4,0-15.2,6.8-15.2,15.2v35.8h-96.2
		c-8.4,0-15.2,6.8-15.2,15.2c0,8.4,6.8,15.2,15.2,15.2h339.6c8.4,0,15.2-6.8,15.2-15.2C569,218.3,562.3,211.5,553.8,211.5z
		 M340.8,190.9h86.3v20.6h-86.3V190.9z"/>
</g>
</svg>
