<svg xmlns="http://www.w3.org/2000/svg" width="768" height="768" viewBox="0 0 768 768">
  <title>Zeichenfläche 1 Kopie</title>
  <path d="M593.82715,354.63568,655,329.297l-40.69336-98.24213-61.17273,25.33868A210.5286,210.5286,0,0,0,511.5946,214.8949l25.35059-61.20172L438.70312,113l-25.35058,61.20166a210.52756,210.52756,0,0,0-58.71692-.02881L329.29712,113l-98.24219,40.69318,25.33875,61.17291A210.52062,210.52062,0,0,0,214.895,256.40546l-61.20184-25.35059L113,329.297l61.2016,25.35058a210.52856,210.52856,0,0,0-.02869,58.71674L113,438.70294l40.69318,98.24213,61.173-25.33869A210.51548,210.51548,0,0,0,256.40552,553.105l-25.35059,61.20178L329.29712,655l25.35059-61.20166a210.52578,210.52578,0,0,0,58.71667.02869L438.70312,655l98.24207-40.69318-25.33874-61.173A210.525,210.525,0,0,0,553.105,511.59454l61.20166,25.35053L655,438.70294l-61.20166-25.35052A210.53084,210.53084,0,0,0,593.82715,354.63568Zm-164.79993,138.293c-60.721,25.10089-130.86462-4.83221-154.80786-66.01892a117.86892,117.86892,0,0,1,64.7533-151.8385c60.72094-25.101,130.86474,4.83221,154.8081,66.019A117.86915,117.86915,0,0,1,429.02722,492.92871Z" style="fill: #fff"/>
</svg>
