<svg xmlns="http://www.w3.org/2000/svg" width="226.76882" height="226.76882" viewBox="0 0 226.76882 226.76882">
  <title>clock-widget-logo</title>
  <g id="Ebene_2" data-name="Ebene 2">
    <g id="Ebene_1-2" data-name="Ebene 1">
      <g>
        <circle cx="113.38441" cy="113.38441" r="113.38441" style="fill: #fff"/>
        <g>
          <g>
            <path d="M98.4526,14.28814h7.54489v20.7628h-3.32665V17.40625H98.4526Z"/>
            <path d="M119.92844,22.39746A4.14735,4.14735,0,0,0,120.82,19.9312a2.78127,2.78127,0,0,0-.95028-2.12286,3.41323,3.41323,0,0,0-2.40633-.87662,4.965,4.965,0,0,0-4.24821,2.61362L110.3943,17.912a10.34137,10.34137,0,0,1,3.01446-3.08937,7.84815,7.84815,0,0,1,4.24822-1.0402,6.86723,6.86723,0,0,1,4.55915,1.64953,5.566,5.566,0,0,1,1.96053,4.49922,6.07121,6.07121,0,0,1-.83166,3.05941,20.59,20.59,0,0,1-3.05942,3.74373l-4.87133,4.96h9.4155V35.0509H110.63157V32.08019l6.29739-6.32611A33.41113,33.41113,0,0,0,119.92844,22.39746Z"/>
          </g>
          <path d="M60.21493,186.57683V180.6066H74.83019v3.11811L66.0365,201.3694h-3.861l8.58508-17.58481H63.393v2.79218Z"/>
          <path d="M29.72319,148.77246a7.80079,7.80079,0,0,1,4.99123-1.57465,7.79947,7.79947,0,0,1,4.99,1.57465,4.85837,4.85837,0,0,1,1.9905,3.966,5.39969,5.39969,0,0,1-2.22775,4.232,5.99682,5.99682,0,0,1,2.99947,5.3471,5.6539,5.6539,0,0,1-2.13784,4.48548,8.39362,8.39362,0,0,1-5.61434,1.81194,8.39129,8.39129,0,0,1-5.61433-1.81194,5.65139,5.65139,0,0,1-2.1391-4.48548,5.99547,5.99547,0,0,1,3.00072-5.3471,5.396,5.396,0,0,1-2.22774-4.232A4.85713,4.85713,0,0,1,29.72319,148.77246Zm2.08046,15.93643a5.2711,5.2711,0,0,0,5.82164,0,2.81061,2.81061,0,0,0,1.36612-2.51A2.87869,2.87869,0,0,0,37.684,159.674a5.39286,5.39286,0,0,0-5.94026,0,2.87869,2.87869,0,0,0-1.30743,2.52494,2.80917,2.80917,0,0,0,1.3673,2.51Zm.28223-9.44547a4.2687,4.2687,0,0,0,5.25719,0,2.771,2.771,0,0,0,1.11388-2.229,2.72945,2.72945,0,0,0-1.11388-2.21277,4.32538,4.32538,0,0,0-5.25719,0,2.73069,2.73069,0,0,0-1.11513,2.21277,2.77237,2.77237,0,0,0,1.11506,2.229Z"/>
          <g>
            <path d="M56.79963,25.58674h7.54489v20.7628H61.01663V28.70484h-4.217Z"/>
            <path d="M68.117,25.58674h7.54489v20.7628H72.334V28.70484H68.117Z"/>
          </g>
          <g>
            <path d="M19.69831,59.0305H27.2432V79.79456H23.91654V62.14986H19.69831Z"/>
            <path d="M34.01636,77.106a13.1055,13.1055,0,0,1-2.10912-7.82711,13.10545,13.10545,0,0,1,2.10912-7.8271A7.31805,7.31805,0,0,1,40.37245,58.526a7.32189,7.32189,0,0,1,6.35734,2.92581,13.11426,13.11426,0,0,1,2.10912,7.8271A13.11426,13.11426,0,0,1,46.72979,77.106a7.32191,7.32191,0,0,1-6.35734,2.92579A7.31807,7.31807,0,0,1,34.01636,77.106Zm2.51-13.44144a11.16783,11.16783,0,0,0-1.2325,5.61433,11.17116,11.17116,0,0,0,1.2325,5.61434,4.12748,4.12748,0,0,0,3.84613,2.13784,4.069,4.069,0,0,0,3.8174-2.12285,11.39708,11.39708,0,0,0,1.20253-5.62933,11.39706,11.39706,0,0,0-1.20253-5.62932,4.07225,4.07225,0,0,0-3.8174-2.1241A4.12845,4.12845,0,0,0,36.52635,63.66458Z"/>
          </g>
          <path d="M152.39694,25.58674h7.54488v20.7628h-3.32789V28.70484h-4.217Z"/>
          <path d="M192.90979,65.78368a4.14379,4.14379,0,0,0,.8916-2.465,2.78135,2.78135,0,0,0-.95029-2.12286,3.41324,3.41324,0,0,0-2.40632-.87661,4.965,4.965,0,0,0-4.24821,2.61361l-2.82091-1.6346a10.35608,10.35608,0,0,1,3.01446-3.08936,7.85915,7.85915,0,0,1,4.24822-1.03895,6.87245,6.87245,0,0,1,4.55915,1.64833,5.5685,5.5685,0,0,1,1.96052,4.50046,6.07435,6.07435,0,0,1-.83166,3.05941,20.63329,20.63329,0,0,1-3.05942,3.74372l-4.87133,4.96h9.4155v3.35661H183.61294V75.46767l6.2974-6.32737A33.26554,33.26554,0,0,0,192.90979,65.78368Z"/>
          <path d="M192.153,159.96991v-3.80117h3.32664v3.80116h2.49623v3.17929h-2.49617v5.22723H192.153v-5.22723h-8.911v-3.08936l7.63355-12.44619h3.83238L187.193,159.96992Z"/>
          <path d="M163.03,180.57661v3.17807h-8.76241v5.10984a6.095,6.095,0,0,1,2.97075-.713,7.60827,7.60827,0,0,1,5.01994,1.752,5.85557,5.85557,0,0,1,2.10787,4.75271,6.4035,6.4035,0,0,1-2.19778,4.97623,7.79113,7.79113,0,0,1-5.4058,1.9755,8.52144,8.52144,0,0,1-6.68326-2.79218l1.87186-2.55492c.15728.15855.37082.3459.63807.56443a8.27372,8.27372,0,0,0,1.64834.87537,6.69074,6.69074,0,0,0,2.7335.55069,4.46935,4.46935,0,0,0,2.70228-.8916,3.02075,3.02075,0,0,0,1.21876-2.59988,3.07708,3.07708,0,0,0-1.29245-2.64358,5.43712,5.43712,0,0,0-3.26794-.93531,7.68945,7.68945,0,0,0-3.75746.98028l-1.48475-1.60338v-9.98118Z"/>
          <path d="M113.30393,194.74734a4.6184,4.6184,0,0,0-4.06964,1.87186,8.81168,8.81168,0,0,0-1.33615,5.04867,7.47341,7.47341,0,0,1,2.13785-1.55842,6.57669,6.57669,0,0,1,3.08936-.728,6.40758,6.40758,0,0,1,4.679,1.85688,6.6048,6.6048,0,0,1,1.8856,4.93,6.40018,6.40018,0,0,1-2.0342,4.94626,7.27758,7.27758,0,0,1-5.12357,1.87186,6.89071,6.89071,0,0,1-6.89179-4.45675,14.78982,14.78982,0,0,1-1.06893-5.76169,17.813,17.813,0,0,1,.68306-5.3471,8.63433,8.63433,0,0,1,1.87062-3.38659,7.54909,7.54909,0,0,1,5.68926-2.43629,9.75442,9.75442,0,0,1,6.10384,2.10912l-1.75324,2.5849a6.67377,6.67377,0,0,0-1.82565-1.06893A5.39725,5.39725,0,0,0,113.30393,194.74734Zm-.63807,7.72339a4.54457,4.54457,0,0,0-3.00073.99525,3.19607,3.19607,0,0,0-1.20253,2.58362,3.70866,3.70866,0,0,0,1.15758,2.7335,3.97929,3.97929,0,0,0,2.91207,1.14259,4.23421,4.23421,0,0,0,2.91081-1.024,3.33761,3.33761,0,0,0,1.15883-2.61486,3.73858,3.73858,0,0,0-3.65479-3.82051q-.14067-.00309-.28123.00436Z"/>
          <path d="M24.38233,119.81918a4.61928,4.61928,0,0,0,4.0709-1.87186,8.82831,8.82831,0,0,0,1.33615-5.04866,7.45817,7.45817,0,0,1-2.13909,1.55843,6.57331,6.57331,0,0,1-3.08937.728,6.40465,6.40465,0,0,1-4.679-1.85686,6.60771,6.60771,0,0,1-1.8856-4.93,6.39687,6.39687,0,0,1,2.03545-4.94627,7.27767,7.27767,0,0,1,5.12357-1.87186,6.8928,6.8928,0,0,1,6.8918,4.45676,14.817,14.817,0,0,1,1.06893,5.76169,17.813,17.813,0,0,1-.68306,5.3471,8.65118,8.65118,0,0,1-1.87187,3.38658,7.54633,7.54633,0,0,1-5.688,2.4363,9.75035,9.75035,0,0,1-6.10508-2.10913l1.75322-2.58488a6.61418,6.61418,0,0,0,1.82691,1.06892A5.39709,5.39709,0,0,0,24.38233,119.81918Zm.63935-7.72341a4.54116,4.54116,0,0,0,2.99948-.99525,3.19355,3.19355,0,0,0,1.20378-2.58364,3.71186,3.71186,0,0,0-1.15883-2.7335,3.95777,3.95777,0,0,0-2.89583-1.14259,4.09792,4.09792,0,0,0-2.86586,1.024,3.38506,3.38506,0,0,0-1.12886,2.62858,3.81316,3.81316,0,0,0,1.024,2.70353,3.66758,3.66758,0,0,0,2.82215,1.09885Z"/>
          <path d="M195.58335,105.08529v-3.1181h12.149v2.7323l-5.01994,5.61433a6.09363,6.09363,0,0,1,4.45551,1.79694,5.76124,5.76124,0,0,1,1.60463,4.08462,6.16976,6.16976,0,0,1-2.15408,4.99,8.30774,8.30774,0,0,1-5.53937,1.81193,11.77259,11.77259,0,0,1-6.62457-2.16906l1.48476-2.82092a9.21116,9.21116,0,0,0,5.3471,1.782,4.97888,4.97888,0,0,0,2.9858-.84665,2.82009,2.82009,0,0,0,1.17258-2.435,2.98993,2.98993,0,0,0-1.30618-2.53994,6.05721,6.05721,0,0,0-3.62386-.95154,7.59057,7.59057,0,0,0-2.22775.32717v-2.67363l4.81139-5.58436Z"/>
        </g>
        <g>
          <line x1="33.00624" y1="139.25435" x2="124.59216" y2="109.77532" style="fill: none;stroke: #000;stroke-miterlimit: 10"/>
          <line x1="33.00727" y1="139.25755" x2="193.76259" y2="87.51448" style="fill: none;stroke: #000;stroke-miterlimit: 10;stroke-opacity: 0"/>
        </g>
        <g>
          <line x1="101.71677" y1="113.38256" x2="197.93006" y2="113.39599" style="fill: none;stroke: #000;stroke-miterlimit: 10;stroke-width: 3px"/>
          <line x1="28.83877" y1="113.37284" x2="197.93006" y2="113.39616" style="fill: none;stroke: #000;stroke-miterlimit: 10;stroke-opacity: 0;stroke-width: 3px"/>
        </g>
        <g>
          <line x1="113.3758" y1="123.0671" x2="113.3758" y2="65.34961" style="fill: none;stroke: #000;stroke-miterlimit: 10;stroke-width: 3px"/>
          <line x1="113.39302" y1="161.41922" x2="113.39302" y2="65.36832" style="fill: none;stroke: #000;stroke-miterlimit: 10;stroke-opacity: 0;stroke-width: 3px"/>
        </g>
        <g>
          <path d="M113.3842,117.99126a4.60661,4.60661,0,1,1,4.60661-4.60661h0A4.611,4.611,0,0,1,113.3842,117.99126Z" style="fill: #fff"/>
          <path d="M113.38472,110.37648a3.00795,3.00795,0,1,1-3.008,3.00794h0a3.00792,3.00792,0,0,1,3.00791-3.00793h0m0-3.19678a6.20473,6.20473,0,1,0,6.20471,6.20474v0A6.21177,6.21177,0,0,0,113.38472,107.1797Z"/>
        </g>
      </g>
    </g>
  </g>
</svg>
