<svg xmlns="http://www.w3.org/2000/svg" width="226.76882" height="226.76882" viewBox="0 0 226.76882 226.76882">
  <title>Element 7</title>
  <g id="Ebene_2" data-name="Ebene 2">
    <g id="Ebene_1-2" data-name="Ebene 1">
      <g>
        <rect width="226.76882" height="226.76882" style="opacity: 0"/>
        <g>
          <path d="M30.29164,59.11732a28.22434,28.22434,0,0,1,20.49121-8.33545,28.22912,28.22912,0,0,1,20.49121,8.33545,27.07382,27.07382,0,0,1,8.50879,20.05713,26.7912,26.7912,0,0,1-8.50879,19.97021,28.37775,28.37775,0,0,1-20.49121,8.248,28.37293,28.37293,0,0,1-20.49121-8.248,26.78042,26.78042,0,0,1-8.50879-19.97021A27.06286,27.06286,0,0,1,30.29164,59.11732Zm7.98828,20.05713a14.32206,14.32206,0,0,0,3.64648,9.898,11.44184,11.44184,0,0,0,8.85645,4.08105,11.28432,11.28432,0,0,0,8.76953-3.99414,14.33986,14.33986,0,0,0,3.55957-9.898,14.34959,14.34959,0,0,0-3.55957-9.89843,11.29535,11.29535,0,0,0-8.76953-3.99415,11.55422,11.55422,0,0,0-8.85645,3.99415A14.01819,14.01819,0,0,0,38.27992,79.17445Z" style="fill: #fff"/>
          <path d="M154.27894,150.80677q19.96728,0,32.64746-15.80273l17.36524,17.88672q-20.66748,23.272-48.71,23.26953-28.04591,0-46.19239-17.71289-18.14795-17.7129-18.14648-44.71582,0-27,18.49414-45.063Q128.2306,50.61,154.97328,50.60853q29.8667,0,50.01269,22.74854L188.14125,92.45912Q175.28871,76.48425,156.1891,76.48255a37.24,37.24,0,0,0-26.13477,9.98536q-10.85449,9.9873-10.85351,26.916,0,16.93214,10.24609,27.17676A33.80879,33.80879,0,0,0,154.27894,150.80677Z" style="fill: #fff"/>
        </g>
      </g>
    </g>
  </g>
</svg>
